<svg width="64" height="64" viewBox="0 0 64 64" fill="none" xmlns="http://www.w3.org/2000/svg">
  <defs>
    <linearGradient id="careGreen" x1="0" y1="0" x2="1" y2="1">
      <stop offset="0%" stop-color="#059669" />
      <stop offset="100%" stop-color="#047857" />
    </linearGradient>
    <filter id="glow" x="-10%" y="-10%" width="120%" height="120%">
      <feDropShadow dx="0" dy="2" stdDeviation="2" flood-color="#047857" flood-opacity="0.15" />
    </filter>
  </defs>
  <rect x="4" y="4" width="56" height="56" rx="18" fill="url(#careGreen)" filter="url(#glow)"/>
  <rect x="5.5" y="5.5" width="53" height="53" rx="16.5" stroke="#ffffff" stroke-opacity="0.25" stroke-width="2.5"/>
  <!-- Heart with care hands symbol -->
  <path d="M43.2 20.5C38.9 17.9 34.3 19.5 32 22.6C29.7 19.5 25.1 17.9 20.8 20.5C16.6 23.1 15.6 29.2 19 33.2C22.6 37.5 32 45.4 32 45.4C32 45.4 41.4 37.5 45 33.2C48.4 29.2 47.4 23.1 43.2 20.5Z" stroke="#ffffff" stroke-width="4.2" stroke-linecap="round" stroke-linejoin="round"/>
  <path d="M21 49H43" stroke="#ffffff" stroke-dasharray="2 3" stroke-width="3.5" stroke-linecap="round" opacity="0.8"/>
</svg>
