<svg xmlns="http://www.w3.org/2000/svg" width="1200" height="630" viewBox="0 0 1200 630" role="img" aria-label="패밀리케어">
  <defs>
    <linearGradient id="bg" x1="0" y1="0" x2="1200" y2="630" gradientUnits="userSpaceOnUse">
      <stop stop-color="#083f3b"/>
      <stop offset=".58" stop-color="#0f766e"/>
      <stop offset="1" stop-color="#7dd3c7"/>
    </linearGradient>
    <radialGradient id="halo" cx="78%" cy="19%" r="62%">
      <stop stop-color="#f59e7a" stop-opacity=".82"/>
      <stop offset=".56" stop-color="#7dd3c7" stop-opacity=".22"/>
      <stop offset="1" stop-color="#083f3b" stop-opacity="0"/>
    </radialGradient>
    <filter id="soft" x="-20%" y="-20%" width="140%" height="140%">
      <feDropShadow dx="0" dy="18" stdDeviation="24" flood-color="#083f3b" flood-opacity=".26"/>
    </filter>
  </defs>
  <rect width="1200" height="630" fill="url(#bg)"/>
  <rect width="1200" height="630" fill="url(#halo)"/>
  <path d="M0 498C166 430 340 458 512 512c176 54 336 44 504-54 72-42 126-57 184-54v226H0Z" fill="#f2fbf8" opacity=".12"/>
  <path d="M74 96h216M74 542h412" stroke="#f2fbf8" stroke-opacity=".16" stroke-width="16" stroke-linecap="round"/>
  <g transform="translate(84 86)" filter="url(#soft)">
    <svg width="104" height="104" viewBox="0 0 512 512">
  <rect width="512" height="512" rx="116" fill="url(#bg)"/>
  <rect width="512" height="512" rx="116" fill="url(#glow)"/>
  <path d="M46 342C154 278 238 414 466 292" fill="none" stroke="#f2fbf8" stroke-opacity=".1" stroke-width="26" stroke-linecap="round"/>
  <g filter="url(#shadow)">
        <g transform="translate(0 0) scale(1)">
          <path d="M256 130c35-54 126-34 126 42 0 66-74 110-126 167-52-57-126-101-126-167 0-76 91-96 126-42z" fill="#7dd3c7"/>
          <path d="M151 308c44-22 83-19 116 7 29 23 63 27 102 13" fill="none" stroke="#f2fbf8" stroke-width="26" stroke-linecap="round"/>
          <path d="M256 168v112M200 224h112" stroke="#083f3b" stroke-width="30" stroke-linecap="round"/>
          <circle cx="366" cy="330" r="45" fill="#f59e7a"/>
          <path d="M345 330l16 16 31-37" fill="none" stroke="#083f3b" stroke-width="14" stroke-linecap="round" stroke-linejoin="round"/>
        </g></g>
</svg>
  </g>
  <text x="214" y="148" font-family="Inter, Pretendard, system-ui, -apple-system, BlinkMacSystemFont, 'Segoe UI', sans-serif" font-size="34" font-weight="900" fill="#f2fbf8">패밀리케어</text>
  <text x="92" y="270" font-family="Inter, Pretendard, system-ui, -apple-system, BlinkMacSystemFont, 'Segoe UI', sans-serif" font-size="62" font-weight="900" fill="#f2fbf8">패밀리케어</text>
  <text x="94" y="335" font-family="Pretendard, system-ui, -apple-system, BlinkMacSystemFont, 'Segoe UI', sans-serif" font-size="27" font-weight="700" fill="#f2fbf8" opacity=".86">돌봄 기록, 정산, 보험청구를 한 곳에서 관리하는 가족 케어 운영 플랫폼</text>
  <g transform="translate(92 485)"><rect width="166" height="44" rx="22" fill="#f2fbf8" opacity=".13" stroke="#f2fbf8" stroke-opacity=".26"/><text x="83" y="28" text-anchor="middle" font-size="15" font-weight="800" fill="#f2fbf8">돌봄 기록</text></g><g transform="translate(282 485)"><rect width="166" height="44" rx="22" fill="#f2fbf8" opacity=".13" stroke="#f2fbf8" stroke-opacity=".26"/><text x="83" y="28" text-anchor="middle" font-size="15" font-weight="800" fill="#f2fbf8">정산 흐름</text></g><g transform="translate(472 485)"><rect width="166" height="44" rx="22" fill="#f2fbf8" opacity=".13" stroke="#f2fbf8" stroke-opacity=".26"/><text x="83" y="28" text-anchor="middle" font-size="15" font-weight="800" fill="#f2fbf8">보험 청구</text></g>
  <g filter="url(#soft)">
    <g transform="translate(722 116)">
      <rect width="342" height="330" rx="46" fill="#f2fbf8" opacity=".94"/>
      <rect x="34" y="36" width="176" height="22" rx="11" fill="#083f3b" opacity=".84"/>
      <rect x="34" y="82" width="252" height="14" rx="7" fill="#083f3b" opacity=".22"/>
      <rect x="34" y="112" width="206" height="14" rx="7" fill="#083f3b" opacity=".14"/>
      <g transform="translate(34 156) scale(.56)">
        <g transform="translate(0 0) scale(1)">
          <path d="M256 130c35-54 126-34 126 42 0 66-74 110-126 167-52-57-126-101-126-167 0-76 91-96 126-42z" fill="#7dd3c7"/>
          <path d="M151 308c44-22 83-19 116 7 29 23 63 27 102 13" fill="none" stroke="#f2fbf8" stroke-width="26" stroke-linecap="round"/>
          <path d="M256 168v112M200 224h112" stroke="#083f3b" stroke-width="30" stroke-linecap="round"/>
          <circle cx="366" cy="330" r="45" fill="#f59e7a"/>
          <path d="M345 330l16 16 31-37" fill="none" stroke="#083f3b" stroke-width="14" stroke-linecap="round" stroke-linejoin="round"/>
        </g></g>
      <rect x="216" y="177" width="72" height="118" rx="24" fill="#7dd3c7" opacity=".88"/>
      <rect x="104" y="252" width="184" height="22" rx="11" fill="#f59e7a" opacity=".82"/>
    </g></g>
</svg>
